<?xml version="1.0" standalone="no"?>
<!DOCTYPE svg PUBLIC "-//W3C//DTD SVG 20010904//EN"
 "http://www.w3.org/TR/2001/REC-SVG-20010904/DTD/svg10.dtd">
<svg version="1.0" xmlns="http://www.w3.org/2000/svg"
 width="1037.000000pt" height="1638.000000pt" viewBox="0 0 1037.000000 1638.000000"
 preserveAspectRatio="xMidYMid meet">

<g transform="translate(0.000000,1638.000000) scale(0.100000,-0.100000)"
fill="#000000" stroke="none">
<path d="M4940 16373 c-296 -27 -462 -54 -700 -113 -988 -244 -1768 -782
-2305 -1590 -383 -575 -563 -1066 -642 -1745 -19 -165 -21 -473 -12 -1860 4
-721 -21 -2128 -41 -2322 -11 -98 -50 -221 -96 -302 -15 -25 -59 -91 -99 -146
-955 -1320 -1254 -2743 -901 -4280 181 -791 514 -1477 1013 -2088 136 -167
507 -540 678 -681 1250 -1036 2634 -1424 4170 -1170 749 124 1440 389 2030
779 707 467 1319 1145 1742 1930 301 558 482 1142 560 1810 25 212 25 831 0
1060 -111 1024 -419 1817 -1023 2642 -101 137 -158 250 -178 348 -12 58 -15
399 -21 2000 -6 1890 -11 2172 -40 2385 -126 898 -597 1760 -1302 2380 -625
549 -1378 875 -2212 955 -137 13 -516 18 -621 8z m680 -498 c739 -87 1408
-413 1982 -964 618 -594 953 -1316 1018 -2196 10 -139 15 -3635 5 -3635 -6 0
-465 332 -628 454 -95 71 -127 101 -144 136 l-23 44 0 1246 c0 721 -4 1306
-10 1390 -28 413 -110 730 -274 1065 -133 271 -298 505 -498 705 -386 388
-884 632 -1516 742 -110 20 -163 23 -397 23 -240 0 -285 -3 -400 -24 -540 -97
-1032 -365 -1465 -800 -262 -263 -428 -515 -543 -822 -156 -416 -179 -725
-182 -2404 -1 -958 -3 -1074 -17 -1111 -41 -104 -104 -170 -258 -269 -58 -37
-199 -137 -313 -222 -114 -86 -211 -153 -214 -150 -3 3 -5 691 -6 1529 0 1477
8 2059 33 2309 68 672 332 1261 806 1799 595 675 1394 1084 2264 1159 69 6
143 13 165 15 86 9 487 -4 615 -19z m-100 -1500 c611 -104 1130 -435 1462
-932 129 -192 252 -478 299 -696 55 -249 53 -195 56 -1564 2 -718 0 -1273 -5
-1273 -5 0 -104 36 -220 80 -406 153 -766 252 -1124 310 -927 149 -1843 43
-2770 -321 -70 -28 -138 -49 -150 -47 l-23 3 -8 380 c-10 464 -2 1689 13 1915
15 241 38 461 60 571 75 370 228 664 484 928 123 126 214 200 371 303 314 206
616 315 1005 362 82 10 459 -3 550 -19z m90 -4520 c218 -24 335 -42 553 -86
1139 -229 2083 -829 2791 -1774 642 -857 949 -1817 923 -2885 -7 -265 -24
-450 -62 -685 -198 -1220 -876 -2319 -1881 -3051 -470 -341 -1037 -605 -1609
-747 -367 -92 -641 -127 -1040 -134 -323 -6 -536 8 -818 52 -1518 238 -2827
1200 -3497 2570 -259 530 -416 1091 -445 1585 -3 52 -8 128 -11 168 l-5 72
418 0 418 0 69 -322 c90 -424 126 -567 187 -744 131 -384 317 -728 574 -1059
149 -192 239 -265 330 -265 89 0 212 95 235 181 22 82 0 133 -152 344 -207
290 -276 399 -384 615 -219 437 -333 865 -352 1320 -29 691 120 1283 485 1923
100 176 138 270 129 324 -13 88 -93 170 -193 199 -129 38 -214 -35 -401 -341
-188 -308 -271 -565 -444 -1362 l-63 -293 -427 0 c-255 0 -428 4 -428 9 0 54
34 407 45 476 78 457 240 957 445 1375 107 216 156 304 277 488 435 667 1027
1185 1803 1577 578 291 1075 434 1690 485 156 13 670 4 840 -15z"/>
<path d="M4970 9073 c-504 -49 -903 -153 -1327 -346 -208 -95 -542 -293 -621
-370 -96 -93 -84 -239 27 -340 71 -64 146 -70 265 -20 101 42 83 60 307 -317
109 -184 198 -340 196 -346 -1 -7 -60 -58 -132 -115 -174 -137 -437 -402 -551
-554 -239 -320 -383 -650 -450 -1035 -25 -146 -31 -520 -10 -690 66 -542 256
-1016 548 -1365 165 -198 390 -390 610 -521 242 -143 391 -204 749 -305 140
-39 271 -80 291 -90 65 -33 65 -29 72 -502 l8 -429 -24 7 c-13 4 -99 32 -193
62 -624 200 -906 285 -976 294 -143 20 -238 -21 -275 -116 -15 -39 -15 -53 -5
-98 16 -72 70 -149 141 -201 154 -114 651 -278 1030 -340 216 -35 352 -46 596
-46 924 0 1759 291 2464 858 112 91 353 323 455 439 88 101 104 146 81 227
-18 62 -80 138 -137 166 -49 26 -121 25 -178 0 -28 -13 -96 -71 -185 -158
-319 -311 -581 -506 -901 -669 -380 -193 -659 -279 -1145 -353 -113 -17 -218
-33 -235 -36 l-30 -5 1 388 c1 213 2 398 3 410 3 56 97 121 206 143 245 49
575 167 788 283 443 242 765 580 992 1042 123 249 197 466 250 730 34 169 45
289 45 479 0 469 -133 893 -415 1321 -145 221 -349 463 -412 488 -61 24 -125
30 -189 17 -130 -27 -164 -67 -164 -192 0 -114 21 -171 91 -243 32 -34 59 -66
59 -71 -1 -9 -624 -451 -661 -468 -15 -7 -39 4 -116 57 -191 128 -372 206
-553 238 -164 28 -374 11 -540 -46 -229 -78 -472 -257 -622 -459 -387 -520
-242 -1299 314 -1683 144 -100 326 -176 483 -204 89 -15 311 -6 395 16 164 44
220 102 220 227 0 82 -14 131 -51 172 -54 62 -89 70 -314 71 -226 1 -258 7
-385 68 -70 34 -101 57 -175 132 -149 149 -218 311 -218 515 -1 169 49 311
154 443 143 179 328 267 564 267 279 0 501 -128 624 -360 39 -72 65 -160 91
-299 25 -135 40 -174 83 -220 46 -48 101 -71 172 -71 100 0 171 47 205 135 19
48 13 182 -15 354 -14 88 -25 181 -23 208 3 48 4 49 88 111 215 161 553 393
565 388 18 -7 86 -135 129 -242 45 -113 90 -293 112 -444 22 -156 15 -457 -15
-616 -79 -422 -262 -785 -540 -1076 -489 -512 -1180 -723 -1905 -582 -480 94
-908 367 -1205 772 -571 774 -551 1785 50 2527 265 328 650 574 1057 675 244
61 422 72 787 49 163 -11 186 -10 240 6 175 51 225 295 80 395 -108 74 -415
116 -717 99 -177 -11 -333 -36 -555 -90 l-172 -42 -45 17 c-51 19 -44 9 -326
475 -115 190 -122 205 -105 217 31 23 254 114 390 159 363 121 717 173 1100
162 520 -15 1027 -144 1505 -383 313 -157 555 -330 801 -574 515 -510 861
-1131 984 -1762 45 -229 58 -374 58 -633 -1 -510 -87 -944 -291 -1450 -109
-272 -121 -329 -84 -401 33 -65 90 -106 176 -128 132 -35 214 31 317 250 332
710 443 1415 339 2157 -87 617 -294 1176 -616 1657 -649 973 -1699 1605 -2866
1725 -133 14 -579 19 -688 8z"/>
</g>
</svg>
